<svg xmlns="http://www.w3.org/2000/svg" xmlns:xlink="http://www.w3.org/1999/xlink" width="500" zoomAndPan="magnify" viewBox="0 0 375 374.999991" height="500" preserveAspectRatio="xMidYMid meet" version="1.0"><defs><g/></defs><g fill="#5ec169" fill-opacity="1"><g transform="translate(-1.634528, 303.508326)"><g><path d="M 141.328125 -110.28125 C 161.160156 -79.226562 183.796875 -46.992188 209.234375 -13.578125 L 208.265625 -6.46875 C 185.628906 -1.507812 164.066406 1.9375 143.578125 3.875 L 136.46875 0 C 114.476562 -37.726562 96.476562 -69.742188 82.46875 -96.046875 L 81.8125 -67.90625 L 84.40625 0 L 19.40625 0 L 22.640625 -61.4375 L 19.40625 -209.234375 L 85.375 -209.234375 L 83.109375 -121.921875 L 123.21875 -186.59375 L 134.203125 -209.234375 L 202.765625 -209.234375 Z M 141.328125 -110.28125 "/></g></g></g><g fill="#5ec169" fill-opacity="1"><g transform="translate(201.457039, 303.508326)"><g><path d="M 98.640625 -213.109375 C 119.117188 -213.109375 139.382812 -209.335938 159.4375 -201.796875 L 149.078125 -149.078125 L 140.03125 -145.203125 C 130.976562 -150.804688 122.03125 -155.222656 113.1875 -158.453125 C 104.34375 -161.691406 97.226562 -163.3125 91.84375 -163.3125 C 86.882812 -163.3125 82.945312 -162.335938 80.03125 -160.390625 C 77.125 -158.453125 75.671875 -155.867188 75.671875 -152.640625 C 75.671875 -148.546875 77.878906 -145.039062 82.296875 -142.125 C 86.722656 -139.21875 94.109375 -135.394531 104.453125 -130.65625 C 116.523438 -125.257812 126.441406 -120.242188 134.203125 -115.609375 C 141.960938 -110.972656 148.753906 -104.613281 154.578125 -96.53125 C 160.398438 -88.445312 163.3125 -78.476562 163.3125 -66.625 C 163.3125 -53.46875 159.695312 -41.550781 152.46875 -30.875 C 145.25 -20.207031 134.957031 -11.75 121.59375 -5.5 C 108.226562 0.75 92.707031 3.875 75.03125 3.875 C 53.039062 3.875 29.972656 -0.21875 5.828125 -8.40625 L 15.203125 -64.671875 L 21.671875 -68.5625 C 31.585938 -61.007812 42.203125 -55.023438 53.515625 -50.609375 C 64.835938 -46.191406 74.269531 -43.984375 81.8125 -43.984375 C 87.851562 -43.984375 92.21875 -45.003906 94.90625 -47.046875 C 97.601562 -49.097656 98.953125 -51.632812 98.953125 -54.65625 C 98.953125 -59.175781 96.632812 -63 92 -66.125 C 87.363281 -69.257812 79.875 -73.085938 69.53125 -77.609375 C 57.675781 -82.785156 47.921875 -87.691406 40.265625 -92.328125 C 32.609375 -96.960938 25.976562 -103.320312 20.375 -111.40625 C 14.769531 -119.488281 11.96875 -129.460938 11.96875 -141.328125 C 11.96875 -154.910156 15.628906 -167.144531 22.953125 -178.03125 C 30.285156 -188.914062 40.523438 -197.484375 53.671875 -203.734375 C 66.828125 -209.984375 81.816406 -213.109375 98.640625 -213.109375 Z M 98.640625 -213.109375 "/></g></g></g></svg>